<svg width="300" height="32" viewBox="0 0 300 32" fill="none" xmlns="http://www.w3.org/2000/svg">
    <path d="M36.49 4.76H20.5V31H16.605V4.76H0.615V1.48H36.49V4.76ZM83.2002 1.48C86.6989 1.48 89.4732 1.91733 91.5232 2.792C93.5732 3.63933 94.9809 4.70533 95.7462 5.99C96.5389 7.24733 96.9352 8.55933 96.9352 9.926C96.9352 11.2927 96.5389 12.6183 95.7462 13.903C94.9809 15.1603 93.5732 16.2263 91.5232 17.101C89.4732 17.9483 86.6989 18.372 83.2002 18.372H81.9702V18.905L100.215 31H93.9422L75.0002 18.372H68.6862V31H64.7912V1.48H83.2002ZM83.2002 15.092C86.7535 15.092 89.2682 14.5863 90.7442 13.575C92.2202 12.5637 92.9582 11.3473 92.9582 9.926C92.9582 8.50467 92.2202 7.28833 90.7442 6.277C89.2682 5.26566 86.7535 4.76 83.2002 4.76H68.6862V15.092H83.2002ZM145.433 0.864999C141.469 0.864999 137.93 1.54833 134.814 2.915C131.725 4.25433 129.32 6.09933 127.598 8.45C125.876 10.7733 125.015 13.37 125.015 16.24C125.015 19.2193 125.876 21.8707 127.598 24.194C129.32 26.5173 131.725 28.335 134.814 29.647C137.902 30.959 141.442 31.615 145.433 31.615C149.423 31.615 152.963 30.959 156.052 29.647C159.14 28.335 161.546 26.5173 163.268 24.194C164.99 21.8707 165.851 19.2193 165.851 16.24C165.851 13.37 164.99 10.7733 163.268 8.45C161.546 6.09933 159.127 4.25433 156.011 2.915C152.922 1.54833 149.396 0.864999 145.433 0.864999ZM145.433 4.227C148.631 4.227 151.487 4.77366 154.002 5.867C156.516 6.933 158.471 8.38167 159.865 10.213C161.259 12.0443 161.956 14.0533 161.956 16.24C161.956 18.3993 161.259 20.4083 159.865 22.267C158.471 24.0983 156.516 25.5607 154.002 26.654C151.487 27.72 148.631 28.253 145.433 28.253C142.235 28.253 139.378 27.72 136.864 26.654C134.349 25.5607 132.395 24.0983 131.001 22.267C129.607 20.4083 128.91 18.3993 128.91 16.24C128.91 14.0533 129.607 12.0443 131.001 10.213C132.395 8.38167 134.349 6.933 136.864 5.867C139.378 4.77366 142.235 4.227 145.433 4.227ZM213.522 0.864999C209.558 0.864999 206.019 1.54833 202.903 2.915C199.814 4.25433 197.409 6.09933 195.687 8.45C193.965 10.7733 193.104 13.37 193.104 16.24C193.104 19.2193 193.965 21.8707 195.687 24.194C197.409 26.5173 199.814 28.335 202.903 29.647C205.991 30.959 209.531 31.615 213.522 31.615C217.512 31.615 221.052 30.959 224.141 29.647C227.229 28.335 229.635 26.5173 231.357 24.194C233.079 21.8707 233.94 19.2193 233.94 16.24C233.94 13.37 233.079 10.7733 231.357 8.45C229.635 6.09933 227.216 4.25433 224.1 2.915C221.011 1.54833 217.485 0.864999 213.522 0.864999ZM213.522 4.227C216.72 4.227 219.576 4.77366 222.091 5.867C224.605 6.933 226.56 8.38167 227.954 10.213C229.348 12.0443 230.045 14.0533 230.045 16.24C230.045 18.3993 229.348 20.4083 227.954 22.267C226.56 24.0983 224.605 25.5607 222.091 26.654C219.576 27.72 216.72 28.253 213.522 28.253C210.324 28.253 207.467 27.72 204.953 26.654C202.438 25.5607 200.484 24.0983 199.09 22.267C197.696 20.4083 196.999 18.3993 196.999 16.24C196.999 14.0533 197.696 12.0443 199.09 10.213C200.484 8.38167 202.438 6.933 204.953 5.867C207.467 4.77366 210.324 4.227 213.522 4.227ZM275.993 1.48C284.658 1.48 290.767 2.80567 294.32 5.457C297.901 8.081 299.691 11.6753 299.691 16.24C299.691 26.08 291.792 31 275.993 31H263.652V1.48H275.993ZM275.829 27.72C282.526 27.72 287.501 26.777 290.753 24.891C294.033 22.9777 295.673 20.094 295.673 16.24C295.673 12.386 294.033 9.516 290.753 7.63C287.473 5.71666 282.499 4.76 275.829 4.76H267.547V27.72H275.829Z" fill="#006CFF"/>
</svg>
