<svg xmlns="http://www.w3.org/2000/svg" width="133" height="26" viewBox="0 0 133 26">
    <g fill="none" fill-rule="evenodd">
        <path fill="#000" d="M18.025.49v4.62H11.41v19.88H6.58V5.11H0V.49h18.025zm20.135 24.5l-4.935-8.505H29.55v8.505h-4.83V.49h9.8c2.263 0 4.188.793 5.775 2.38 1.587 1.587 2.38 3.5 2.38 5.74 0 1.517-.432 2.922-1.295 4.218a8.108 8.108 0 0 1-3.43 2.922l5.425 9.24H38.16zM29.55 5.005v7.245h4.97c.91 0 1.692-.356 2.345-1.068.653-.711.98-1.569.98-2.572 0-1.003-.327-1.855-.98-2.555-.653-.7-1.435-1.05-2.345-1.05h-4.97zM61.515 25.48c-3.547 0-6.55-1.23-9.013-3.692-2.461-2.462-3.692-5.478-3.692-9.048 0-3.57 1.23-6.586 3.692-9.047C54.965 1.23 57.968 0 61.515 0c3.547 0 6.557 1.23 9.03 3.692 2.473 2.462 3.71 5.478 3.71 9.048 0 3.57-1.237 6.586-3.71 9.048-2.473 2.461-5.483 3.692-9.03 3.692zm0-4.725c2.24 0 4.118-.752 5.635-2.258 1.517-1.505 2.275-3.424 2.275-5.757 0-2.333-.758-4.258-2.275-5.775-1.517-1.517-3.395-2.275-5.635-2.275-2.24 0-4.118.758-5.635 2.275-1.517 1.517-2.275 3.442-2.275 5.775s.758 4.252 2.275 5.757c1.517 1.506 3.395 2.258 5.635 2.258zm28.72 4.725c-3.547 0-6.55-1.23-9.013-3.692-2.461-2.462-3.692-5.478-3.692-9.048 0-3.57 1.23-6.586 3.692-9.047C83.684 1.23 86.688 0 90.236 0c3.547 0 6.557 1.23 9.03 3.692 2.473 2.462 3.71 5.478 3.71 9.048 0 3.57-1.237 6.586-3.71 9.048-2.473 2.461-5.483 3.692-9.03 3.692zm0-4.725c2.24 0 4.118-.752 5.635-2.258 1.517-1.505 2.275-3.424 2.275-5.757 0-2.333-.758-4.258-2.275-5.775-1.517-1.517-3.395-2.275-5.635-2.275-2.24 0-4.118.758-5.635 2.275-1.517 1.517-2.275 3.442-2.275 5.775s.758 4.252 2.275 5.757c1.517 1.506 3.395 2.258 5.635 2.258zM121.1.49c3.36 0 6.166 1.178 8.418 3.535 2.251 2.357 3.377 5.262 3.377 8.715 0 3.453-1.126 6.358-3.377 8.715-2.252 2.357-5.058 3.535-8.418 3.535h-12.73V.49h12.73zm0 19.88c2.123 0 3.85-.706 5.18-2.117 1.33-1.412 1.995-3.25 1.995-5.513s-.665-4.1-1.995-5.513c-1.33-1.411-3.057-2.117-5.18-2.117h-7.9v15.26h7.9z"/>
        <circle cx="76" cy="13" r="8" fill="#08E"/>
    </g>
</svg>
